<svg width="289" height="81" viewBox="0 0 289 81" fill="none" xmlns="http://www.w3.org/2000/svg">
<path d="M9.38631 55.9429L2.90939 47.709L0.495608 15.6409C3.9788 11.2169 15.8631 2.28401 35.535 1.94427C60.1247 1.51959 89.4779 -0.394813 117.658 0.978616C145.837 2.35204 188.841 3.00651 198.761 3.37272C208.68 3.73892 248.92 4.22537 261.778 9.69651C272.065 14.0734 281.339 22.0776 284.69 25.5325C283.62 26.1592 282.078 28.1674 284.47 31.1872C286.863 34.2069 288.01 38.7574 288.285 40.6552C286.85 41.7126 283.969 44.0935 283.928 45.158C283.876 46.4885 274.465 46.4742 279.1 48.3109C282.807 49.7802 283.596 53.6957 283.527 55.4697C279.808 56.998 270.696 60.0594 264.003 60.0788C257.31 60.0982 251.417 61.0577 249.307 61.535L249.204 64.1963C252.319 64.7554 257.918 65.9835 255.391 66.4232C252.233 66.9728 249.165 65.194 246.516 66.0955C243.866 66.9971 240.134 68.858 243.241 69.6389C244.179 70.2875 245.109 70.628 245.949 70.7781C246.991 70.657 248.116 70.5674 248.958 70.5162C248.411 70.7696 247.296 71.0189 245.949 70.7781C244.179 70.9837 242.651 71.2804 243.163 71.6347C243.978 72.1978 247.288 73.1195 248.842 73.5099L251.375 75.6021L243.021 75.2937C238.427 75.1241 239.289 77.1547 240.294 78.1911C239.068 78.3679 235.888 78.5614 232.985 77.9213C229.356 77.1211 230.884 78.1768 224.606 78.2782C219.584 78.3593 201.282 77.5282 192.759 77.1025C193.472 76.6846 193.959 75.8143 190.2 75.6755C185.501 75.5021 184.979 75.4828 179.21 75.9361C173.441 76.3893 120.035 74.3515 102.284 73.6962L76.7018 72.7517C68.4794 73.5586 49.009 74.9939 36.9069 74.2807C21.7793 73.3891 8.85639 69.5808 8.86931 69.2482C8.87965 68.9821 6.16671 67.0387 4.80895 66.1003C6.17964 66.7061 8.93394 67.585 8.98564 66.2545C9.03734 64.9239 6.40367 60.9404 5.08038 59.1149L9.38631 55.9429Z" fill="#898985"/>
<path d="M18.5692 75.2693C16.8986 75.2076 16.7772 76.5356 16.9254 77.2073L13.5189 77.4146C11.8226 78.4624 8.74569 80.5029 10.009 80.2831C11.2724 80.0632 13.7024 79.4201 14.7595 79.126C15.4729 78.7082 20.2409 77.9959 33.6063 78.4893C50.3131 79.1061 48.7727 78.383 50.339 78.4408C51.9052 78.4986 20.6576 75.3464 18.5692 75.2693Z" fill="#898985"/>
</svg>
